<svg width="63" height="22" viewBox="0 0 63 22" fill="none" xmlns="http://www.w3.org/2000/svg">
<path d="M5.048 11.976L3.736 13.704V21H0.184V1.064H3.992V1.352C3.864 1.48 3.78933 1.62933 3.768 1.8C3.74667 1.94933 3.736 2.19467 3.736 2.536V9.224L10.36 0.872C10.68 0.957333 11.0853 1.01067 11.576 1.032C12.0667 1.05333 12.44 1.064 12.696 1.064H14.36L7.608 9.416L14.744 20.968L10.616 21.128L5.048 11.976ZM26.968 21L25.592 16.36H20.376L18.968 21H15.384L22.136 0.935999H23.864L30.616 21H26.968ZM23 7.624L21.144 13.768H24.824L23 7.624ZM32.824 1.064H36.76V1.352C36.632 1.48 36.5467 1.62933 36.504 1.8C36.4827 1.94933 36.472 2.19467 36.472 2.536V18.056H45.624V21H32.824V1.064ZM55.064 21.384C52.6107 21.384 50.7547 20.488 49.496 18.696C48.2373 16.904 47.608 14.3547 47.608 11.048C47.608 7.82667 48.2373 5.30933 49.496 3.496C50.7547 1.68267 52.6107 0.775999 55.064 0.775999C57.4747 0.775999 59.3093 1.68267 60.568 3.496C61.848 5.30933 62.488 7.82667 62.488 11.048C62.488 14.3547 61.848 16.904 60.568 18.696C59.3093 20.488 57.4747 21.384 55.064 21.384ZM55.064 18.44C56.2587 18.44 57.1973 17.832 57.88 16.616C58.5627 15.3787 58.904 13.512 58.904 11.016C58.904 8.69067 58.5627 6.89867 57.88 5.64C57.1973 4.36 56.2587 3.72 55.064 3.72C53.8267 3.72 52.8667 4.36 52.184 5.64C51.5227 6.89867 51.192 8.69067 51.192 11.016C51.192 13.512 51.5227 15.3787 52.184 16.616C52.8667 17.832 53.8267 18.44 55.064 18.44Z" fill="#2B2B2B"/>
</svg>
