<svg width="36" height="36" viewBox="0 0 36 36" fill="none" xmlns="http://www.w3.org/2000/svg">
<path d="M18.4653 9C16.2031 9 14.3692 10.8339 14.3692 13.0961C14.3692 15.3583 16.2031 17.1922 18.4653 17.1922C20.7275 17.1922 22.5614 15.3583 22.5614 13.0961C22.5614 10.8339 20.7275 9 18.4653 9Z" fill="#595959"/>
<path d="M14.0961 19.3768C11.8339 19.3768 10 21.2107 10 23.4729V24.7709C10 25.5936 10.5963 26.2951 11.4083 26.4277C16.082 27.1908 20.8486 27.1908 25.5223 26.4277C26.3343 26.2951 26.9306 25.5936 26.9306 24.7709V23.4729C26.9306 21.2107 25.0967 19.3768 22.8345 19.3768H22.4621C22.2606 19.3768 22.0604 19.4087 21.8688 19.4712L20.9234 19.7799C19.3262 20.3015 17.6044 20.3015 16.0072 19.7799L15.0618 19.4712C14.8702 19.4087 14.67 19.3768 14.4684 19.3768H14.0961Z" fill="#595959"/>
<path d="M18.4653 9C16.2031 9 14.3692 10.8339 14.3692 13.0961C14.3692 15.3583 16.2031 17.1922 18.4653 17.1922C20.7275 17.1922 22.5614 15.3583 22.5614 13.0961C22.5614 10.8339 20.7275 9 18.4653 9Z" fill="#595959"/>
<path d="M14.0961 19.3768C11.8339 19.3768 10 21.2107 10 23.4729V24.7709C10 25.5936 10.5963 26.2951 11.4083 26.4277C16.082 27.1908 20.8486 27.1908 25.5223 26.4277C26.3343 26.2951 26.9306 25.5936 26.9306 24.7709V23.4729C26.9306 21.2107 25.0967 19.3768 22.8345 19.3768H22.4621C22.2606 19.3768 22.0604 19.4087 21.8688 19.4712L20.9234 19.7799C19.3262 20.3015 17.6044 20.3015 16.0072 19.7799L15.0618 19.4712C14.8702 19.4087 14.67 19.3768 14.4684 19.3768H14.0961Z" fill="#595959"/>
<circle cx="18" cy="18" r="17" stroke="#595959" stroke-width="2"/>
</svg>
